<?xml version="1.0" standalone="no"?>
<!DOCTYPE svg PUBLIC "-//W3C//DTD SVG 20010904//EN"
 "http://www.w3.org/TR/2001/REC-SVG-20010904/DTD/svg10.dtd">
<svg version="1.0" xmlns="http://www.w3.org/2000/svg"
 width="288.000000pt" height="288.000000pt" viewBox="0 0 288.000000 288.000000"
 preserveAspectRatio="xMidYMid meet">
<metadata>
Created by potrace 1.15, written by Peter Selinger 2001-2017
</metadata>
<g transform="translate(0.000000,288.000000) scale(0.100000,-0.100000)"
fill="#000000" stroke="none">
<path d="M1191 2630 c-185 -24 -332 -86 -442 -188 -172 -159 -251 -330 -327
-714 -21 -106 -47 -211 -58 -233 -23 -49 -98 -126 -150 -154 l-39 -20 38 -1
c21 0 54 7 74 15 20 8 38 13 41 11 9 -9 -51 -100 -95 -143 -24 -25 -58 -49
-76 -56 -32 -11 -32 -11 -7 -18 70 -20 165 3 235 56 25 19 45 32 45 29 0 -4
-31 -66 -69 -138 -82 -155 -101 -214 -101 -313 0 -67 4 -80 46 -163 55 -106
70 -200 40 -245 -20 -31 -17 -31 44 0 67 34 120 82 140 128 l17 38 22 -27 c27
-34 28 -103 1 -161 -16 -36 -17 -43 -4 -43 48 0 121 70 149 145 17 42 20 45
34 30 12 -11 16 -35 16 -84 l0 -69 28 16 c28 17 72 63 92 96 9 15 20 8 81 -53
82 -80 170 -140 253 -172 45 -18 83 -23 197 -27 269 -8 349 21 516 188 l106
107 30 -43 c28 -40 87 -82 99 -71 2 3 -1 15 -7 27 -13 25 -6 77 14 105 13 18
15 17 29 -18 16 -37 106 -141 138 -158 16 -8 16 -5 2 39 -14 46 -13 145 3 185
5 14 12 9 35 -27 36 -57 100 -120 139 -136 39 -16 46 -9 30 31 -24 58 -17 112
24 178 89 145 69 335 -58 546 -25 43 -46 79 -46 81 0 1 27 -11 60 -28 49 -26
75 -32 142 -35 l83 -5 -41 21 c-43 23 -80 57 -110 105 l-18 29 24 -6 c62 -15
100 -19 100 -10 0 5 -15 15 -34 21 -48 18 -110 89 -135 157 -12 33 -36 140
-53 240 -38 225 -85 390 -149 524 -63 134 -103 181 -182 221 -55 28 -70 31
-134 28 l-73 -2 -42 41 c-52 51 -132 89 -230 108 -90 19 -386 27 -487 15z
m693 -497 c34 -82 106 -149 202 -188 l54 -22 3 -139 c4 -162 19 -214 94 -316
l47 -63 -48 -245 c-71 -359 -115 -476 -219 -580 -43 -44 -126 -90 -163 -90
-18 0 -22 7 -27 54 -7 66 -35 123 -82 164 -79 70 -201 106 -237 70 -26 -26
-83 -23 -102 3 -13 19 -20 21 -63 14 -61 -9 -94 -26 -150 -78 -56 -51 -84
-106 -92 -177 -5 -50 -8 -55 -31 -56 -52 -3 -151 66 -226 157 -67 82 -115 180
-130 271 -8 43 -23 100 -33 128 l-19 49 29 39 c42 57 61 117 61 193 1 65 1 65
39 87 48 28 96 108 105 175 6 41 10 48 33 53 314 67 621 236 851 467 41 42 77
76 80 76 3 1 14 -20 24 -46z m-236 -1498 c88 -28 112 -47 112 -90 0 -63 -75
-121 -171 -132 -60 -7 -63 5 -14 54 19 19 35 36 35 38 0 11 -34 11 -66 0 -50
-18 -138 -18 -189 0 -59 21 -67 3 -20 -45 21 -22 36 -43 32 -47 -12 -11 -130
15 -156 35 -30 22 -57 59 -65 88 -10 35 34 78 101 98 135 41 274 41 401 1z"/>
</g>
</svg>
