<?xml version="1.0" standalone="no"?>
<!DOCTYPE svg PUBLIC "-//W3C//DTD SVG 20010904//EN"
 "http://www.w3.org/TR/2001/REC-SVG-20010904/DTD/svg10.dtd">
<svg version="1.0" xmlns="http://www.w3.org/2000/svg"
 width="700.000000pt" height="700.000000pt" viewBox="0 0 700.000000 700.000000"
 preserveAspectRatio="xMidYMid meet">
<metadata>
Created by potrace 1.11, written by Peter Selinger 2001-2013
</metadata>
<g transform="translate(0.000000,700.000000) scale(0.100000,-0.100000)"
fill="#000000" stroke="none">
<path d="M3057 6404 c-1 -1 -42 -4 -92 -8 -316 -22 -642 -121 -891 -272 -226
-136 -480 -395 -626 -639 -156 -260 -297 -665 -384 -1101 -5 -28 -44 -213 -50
-239 -2 -11 -7 -33 -10 -50 -10 -61 -93 -391 -108 -434 -21 -56 -88 -149 -168
-231 -86 -89 -145 -135 -231 -182 l-72 -39 95 4 c66 3 119 13 174 31 43 14 85
26 93 26 20 0 9 -30 -39 -110 -111 -182 -270 -338 -390 -381 -50 -17 -37 -28
52 -43 175 -29 372 30 560 168 35 26 66 43 68 38 2 -6 -29 -72 -69 -148 -308
-596 -339 -682 -334 -959 2 -151 6 -165 105 -370 102 -210 138 -337 135 -467
-2 -65 -7 -85 -34 -132 -39 -69 -30 -71 82 -15 184 93 298 195 363 325 21 43
40 81 41 83 7 11 47 -39 73 -93 49 -99 42 -221 -19 -365 -35 -83 -35 -82 -21
-91 20 -12 90 9 139 42 100 69 185 177 240 308 39 90 43 95 70 79 40 -26 50
-77 51 -282 l0 -98 42 23 c70 39 210 179 253 253 10 16 14 16 37 4 14 -8 77
-61 138 -119 62 -58 120 -112 129 -120 171 -158 492 -336 640 -355 20 -3 47
-7 61 -10 39 -8 292 -18 440 -18 410 -1 606 52 835 226 99 75 135 109 347 321
93 92 171 167 173 165 2 -2 24 -33 50 -69 26 -36 71 -86 99 -113 57 -54 145
-102 159 -88 5 5 1 31 -11 63 -31 84 -15 196 38 259 l27 33 32 -64 c43 -87
127 -195 236 -306 112 -112 156 -130 125 -49 -10 26 -11 31 -28 120 -11 51 -9
269 2 317 12 51 26 80 39 76 6 -3 29 -29 50 -59 64 -91 80 -112 132 -169 114
-125 207 -190 276 -193 32 -2 34 0 31 28 -1 17 -10 48 -18 69 -55 141 -33 263
80 455 40 70 90 211 102 291 15 96 7 371 -12 401 -2 3 -6 20 -9 37 -12 72 -80
255 -135 367 -57 117 -81 161 -170 313 -23 40 -41 75 -39 76 2 2 58 -22 124
-54 158 -75 191 -83 420 -96 66 -3 123 -8 128 -11 4 -2 7 -2 7 1 0 3 -28 20
-62 37 -133 67 -235 165 -318 303 l-24 39 30 -7 c16 -5 40 -10 54 -12 14 -3
39 -9 55 -14 43 -14 154 -17 157 -5 2 6 -33 28 -77 50 -124 62 -247 197 -312
343 -32 73 -98 342 -119 482 -3 19 -7 42 -10 50 -3 8 -8 33 -10 55 -3 22 -7
46 -10 54 -3 8 -7 30 -10 50 -4 31 -20 119 -40 221 -31 157 -106 444 -158 600
-62 187 -101 282 -187 454 -82 164 -138 251 -209 324 -53 55 -150 122 -230
159 -25 11 -58 27 -75 34 -22 10 -79 14 -211 14 l-182 0 -78 73 c-42 40 -108
93 -146 118 -66 44 -202 109 -263 125 -190 51 -198 52 -415 74 -117 12 -771
28 -783 19z m1607 -1368 c53 -75 130 -148 215 -205 64 -44 214 -118 284 -140
22 -8 37 -19 38 -29 0 -9 2 -93 4 -187 4 -181 13 -358 21 -415 17 -122 60
-261 95 -312 11 -14 19 -31 19 -36 0 -6 6 -17 13 -24 6 -7 25 -33 42 -58 16
-25 55 -79 85 -120 31 -41 60 -80 63 -87 4 -6 1 -45 -7 -85 -13 -66 -38 -194
-50 -258 -2 -14 -19 -95 -36 -180 -35 -174 -38 -191 -44 -223 -57 -309 -168
-712 -237 -865 -16 -34 -29 -64 -29 -66 0 -2 -19 -37 -41 -78 -89 -157 -223
-300 -358 -382 -84 -51 -195 -96 -236 -96 -32 0 -51 32 -60 95 -3 28 -8 65
-11 83 -6 52 -43 152 -77 212 -132 232 -557 423 -692 312 -39 -32 -65 -42
-115 -42 -62 0 -106 18 -144 60 -30 32 -30 32 -104 26 -163 -14 -279 -73 -417
-211 -130 -129 -181 -231 -209 -421 -8 -54 -21 -104 -29 -111 -38 -38 -164 -2
-288 82 -312 213 -551 574 -624 940 -23 117 -71 291 -99 364 -14 35 -23 69
-19 75 3 6 27 40 54 76 104 144 146 269 155 465 7 158 13 173 76 214 69 46 92
67 137 126 67 88 122 205 135 288 12 75 25 120 38 132 7 7 81 30 163 51 600
149 1169 438 1655 839 127 104 162 137 359 329 l134 131 49 -104 c26 -57 68
-131 92 -165z m-949 -3430 c22 -4 68 -11 101 -16 82 -13 221 -54 311 -91 76
-32 142 -88 145 -124 0 -11 2 -33 3 -50 10 -155 -232 -324 -466 -325 -89 0
-83 27 34 150 63 65 78 88 60 92 -37 7 -79 3 -138 -13 -166 -44 -325 -44 -480
1 -84 24 -104 25 -111 5 -7 -18 17 -55 94 -144 72 -86 70 -95 -20 -87 -128 11
-260 52 -324 101 -50 38 -118 135 -133 188 -11 39 -11 50 4 81 45 94 208 177
415 211 19 3 42 8 50 10 8 2 44 7 80 10 36 4 66 8 67 9 5 5 270 -2 308 -8z"/>
</g>
</svg>
